# xmcd
# 
# Track frame offsets:
#     150
#     17168
#     29729
#     44307
#     63527
#     84611
#     98689
#     117890
#     133010
#     152606
#     165588
# 
# Disc length: 2448
# 
# Revision: 2
# Processed by: cddbd v1.5.2PL0 Copyright (c) Steve Scherf et al.
# Submitted via: fre:ac v1.0.31
# 
DISCID=8b098e0b
DTITLE=Eli ''Paperboy'' Reed - High and Mighty Brass Band - Eli Paperboy Reed Meets High and Mighty Brass Band
DYEAR=2018
DGENRE=06.2-Soul
TTITLE0=As I Live and Breathe
TTITLE1=WooHoo
TTITLE2=The Satisfier
TTITLE3=Name Calling
TTITLE4=Well, Alright Now
TTITLE5=Walkin' and Talkin' (For My Baby)
TTITLE6=Take My Love with You
TTITLE7=I'm Gonna Getcha Back
TTITLE8=Love on Top
TTITLE9=Explosion
TTITLE10=Come and Get It
EXTD=
EXTT0=
EXTT1=
EXTT2=
EXTT3=
EXTT4=
EXTT5=
EXTT6=
EXTT7=
EXTT8=
EXTT9=
EXTT10=
PLAYORDER=
